<?xml version="1.0" encoding="utf-8"?>
<!-- Generator: Adobe Illustrator 27.5.0, SVG Export Plug-In . SVG Version: 6.00 Build 0)  -->
<svg version="1.1" id="Layer_1" xmlns="http://www.w3.org/2000/svg" xmlns:xlink="http://www.w3.org/1999/xlink" x="0px" y="0px"
	 viewBox="0 0 2871 2000" style="enable-background:new 0 0 2871 2000;" xml:space="preserve">
<g>
	<rect style="fill:#FFFFFF;" width="2871" height="2000"/>
	<path style="fill:#F48C7F;" d="M1371.751,1280.527c-4.467-3.734-9.865-2.042-25.368-9.21c-3.004-1.389-10.898-3.594-14.434-4.31
		c-0.663-0.134-1.188-0.637-1.362-1.29c-4.713-17.829-25.354-100.259-27.62-124.028c-2.317-24.308-17.994-127.361-20.386-143.03
		c-0.163-1.066-1.221-1.745-2.261-1.455l-45.04,12.56c-0.923,0.258-1.483,1.191-1.271,2.126
		c2.781,12.283,20.093,89.409,25.179,128.443c4.054,31.118,50.411,130.947,51.341,137.332c0.009,0.06,0.018,0.119,0.026,0.179
		c0.28,1.921,1.926,3.343,3.867,3.343c11.437-0.003,48.102-0.01,50.193,0.001
		C1366.523,1281.197,1373.147,1281.694,1371.751,1280.527z"/>
	<path style="fill:#13375B;" d="M1271.524,959.411c-23.967-72.704-50.77-69.607-50.77-69.607l20.727,152.851
		c14.8-4.047,34.071-13.055,48.856-17.23C1285.436,1002.441,1277.427,977.316,1271.524,959.411z"/>
	<path style="fill:#F47458;" d="M1264.082,770.358c-7.335-47.815-50.595-82.196-95.837-58.995
		c-10.175,5.218-23.95,15.807-30.979,24.827c-18.999,24.385-23.859,54.505-43.483,78.181c7.208,5.467,15.927,11.201,26.309,16.71
		l12.221-16.295l-4.207,20.335c30.373,14.535,73.268,26.526,131.936,26.187C1267.415,828.091,1267.995,795.865,1264.082,770.358z"/>
	<path style="fill:#F48C7F;" d="M1278.187,1830.275c-6.905-5.089-12.477-8.452-34.533-19.146c-1.438-0.697-6.675-4.035-8.564-5.191
		c-4.789-2.931-9.598-7.544-13.738-12.164c-3.953-4.41-5.837-18.551-6.726-29.82c2.271-25.169,38.742-428.847,46.435-472.547
		c7.941-45.109-4.154-113.916-4.154-113.916l-28.157-10.619l-53.45,185.259l4.215,141.019c0,0-12.569,40.647-14.157,64.938
		c-1.588,24.289,18.169,221.455,18.169,221.455h0.001c0.001,7.051-0.276,13.427-1.059,17.41c-1.451,7.375-9.53,22.556-5.824,29.495
		c3.706,6.94,7.941,8.676,7.941,8.676l96.044,1.551C1285.862,1836.758,1282.405,1833.384,1278.187,1830.275z"/>
	<path style="fill:#F79C8D;" d="M1132.42,1163.021c0,0-33.351,50.313-41.292,91.952c-7.941,41.64,5.828,169.605-9.447,224.171
		c-8.269,29.538-39.609,75.152-44.374,113.321s-21.343,148.337-21.343,148.337h0.002c-2.509,11.565-6.438,25.87-11.538,32.521
		c-3.122,4.07-8.824,9.219-12.567,16.576c-5.826,11.451-2.604,28.5,1.693,37.89c2.206,4.819-0.155,4.806,4.868,6.358
		c14.876,4.6,30.701-3.146,37.034-17.426c3.538-7.977,6.642-18.616,7.266-32.024c0.662-14.211,2.884-25.502,5.253-33.854l0,0
		l106.607-261.513l77.179-225.688l19.771-116.235L1132.42,1163.021z"/>
	<path style="fill:#86B1F2;" d="M1038.341,1809.21c-23.074,4.217-38.426-9.312-46.415-19.439
		c-5.864,11.474-8.726,28.593-4.412,38.018c3.799,8.302,14.902,8.063,23.645,8.389c9.243,0.344,16.396-4.803,20.981-12.87
		C1034.282,1819.539,1036.491,1814.848,1038.341,1809.21z"/>
	<path style="fill:#86B1F2;" d="M1235.078,1805.931c-25.4,6.532-44.176,2.092-54.68-2.153c-2.709,7.694-6.299,17.347-4.395,22.913
		c2.332,6.814,5.652,8.355,8.584,8.433c23.202,0.61,84.987,1.441,102.677,1.673c2.471,0.032,3.833-2.86,2.245-4.762
		C1285.122,1826.782,1236.971,1807.09,1235.078,1805.931z"/>
	<path style="fill:#50BFA5;" d="M1154.048,1484.398c1.993,0.136,4.001,0.264,6.018,0.386c0.104,0.007,0.207,0.013,0.311,0.02
		c1.979,0.118,3.967,0.23,5.961,0.334c0.121,0.007,0.242,0.013,0.362,0.019c1.997,0.104,4,0.198,6.005,0.284
		c0.103,0.005,0.205,0.009,0.307,0.013c2.042,0.087,4.087,0.165,6.132,0.232c22.766,0.748,50.887,0.458,68.93-2.609
		c9.198-92.084,12.625-176.123,16.03-194.723c8.258-45.109-7.196-116.311-7.196-116.311l-7.377-1.324l4.664-26.367l-123.865,15.615
		c0,0-34.683,50.313-42.94,91.952c-8.257,41.64,6.062,169.605-9.824,224.171C1077.565,1476.09,1112.927,1481.599,1154.048,1484.398z
		"/>
	<path style="fill:#355389;" d="M1159.419,876.752c0,0-38.911-5.086-56.38,13.999c-17.469,19.084,33.505,172.321,36.682,196.61
		s-16.193,88.873-16.193,88.873s103.733,20.921,133.38,1.258c0,0,3.177-174.662,0-192.012c-3.176-17.351-29.647-87.909-36-94.849
		C1214.554,883.69,1159.419,876.752,1159.419,876.752z"/>
	<path style="fill:#F7A491;" d="M1174.12,817.612c0,0-0.229,1.304-0.639,3.521c-1.969,10.641-9.551,45.939-14.673,55.643
		c-6.189,11.727,21.191,49.129,47.544,44.565c7.845-1.359-6.631-34.366-5.935-37.862c1.332-6.693,3.138-15.824,4.986-25.186
		c1.042-5.281,2.098-10.636,3.089-15.668c2.818-14.303,5.118-25.999,5.118-25.999L1174.12,817.612z"/>
	<path style="opacity:0.5;fill:#F47458;" d="M1173.48,821.134c0.41-2.218,0.639-3.522,0.639-3.522l39.49-0.986
		c0,0-2.299,11.697-5.118,25.999c-0.986,5.004-2.036,10.328-3.073,15.581c-6.096-0.899-12.467-3.87-18.854-9.475
		c-6.964-6.109-11.528-13.451-14.282-21.289C1172.769,824.94,1173.175,822.784,1173.48,821.134z"/>
	<path style="fill:#F7A491;" d="M1200.698,727.647c0,0-18.613-2.155-30.28,12.969c-11.667,15.124-24.242,61.896,4.741,87.324
		c28.983,25.429,57.62-3.355,61.866-33.874C1241.271,763.548,1242.921,726.545,1200.698,727.647z"/>
	<path style="fill:#F7A491;" d="M1245.599,793.616c-3.459,6.74-9.266,10.472-12.97,8.336c-3.704-2.136-3.901-9.332-0.442-16.073
		c3.459-6.74,9.267-10.473,12.97-8.336C1248.86,779.679,1249.058,786.875,1245.599,793.616z"/>
	<path style="fill:#F47458;" d="M1202.78,722.647c0,0-24.867,44.477-42.656,46.532c-17.789,2.056-20.125,25.689-20.125,25.689
		s6.36-54.458,23.971-64.96C1181.582,719.406,1202.78,722.647,1202.78,722.647z"/>
	<path style="fill:#F7A491;" d="M1164.789,780.356c1.447,7.898-1.463,15.142-6.499,16.178c-5.036,1.037-10.291-4.526-11.738-12.424
		c-1.447-7.898,1.462-15.142,6.499-16.179C1158.087,766.894,1163.342,772.457,1164.789,780.356z"/>
	<path style="fill:#FFFFFF;" d="M1186.701,809.046l26.909,5.293c0,0-2.63,10.098-14.531,8.112
		C1184.567,820.031,1186.701,809.046,1186.701,809.046z"/>
	<path style="fill:#F7A491;" d="M906.002,1030.148c-1.641-3.898,17.536-8.327,18.315-12.422c0.779-4.096-24.737-2.815-25.871-6.298
		c-2.09-6.416,27.859-3.121,27.085-6.135c-0.774-3.014-31.491-7.933-28.545-13.373c2.947-5.438,31.319,8.425,31.927,4.822
		c0.607-3.604-27.545-10.519-27.538-18.336c0.004-4.178,46.617,17.919,51.7,15.33c5.084-2.589-6.985-21.471-3.007-24.634
		c3.979-3.163,18.587,38.748,21.547,39.991c2.95,1.24,65.998,32.174,88.001,36.342c2.176-7.418,18.668-47.061,20.559-54.064
		c12.693,7.888,26.905,8.893,39.94,15.993c-7.661,23.339-35.371,81.352-41.522,84.607c-18.73,9.914-97.142-47.248-112.683-56.897
		c-15.556-9.658-23.863-5.691-34.143-8.407C921.488,1023.952,907.643,1034.046,906.002,1030.148z"/>
	<path style="fill:#13375B;" d="M1114.26,1048.085c0,0,40.158-80.784,41.373-108.929c1.214-28.144-26.847-59.621-51.183-54.184
		c-24.336,5.438-43.784,135.28-43.784,135.28L1114.26,1048.085z"/>
	<path style="fill:#F48C7F;" d="M1960.755,1264.748l130.303-33.572c0,0,30.238-57.814,74.604-119.956
		c14.506,14.358,22.568,36.417,37.176,50.634l-84.916,107.1c-3.907,4.323-167.094,20.804-167.094,20.804L1960.755,1264.748z"/>
	<path style="fill:#F7CC7F;" d="M2163.174,959.673c-1.025-24.726,2.615-49.143,13.678-72.163
		c9.519-19.806,33.068-31.044,54.546-31.072c68.196-0.088,76.868,90.016,120.279,124.772c13.265,10.62,28.091,19.27,40.643,30.722
		c46.347,42.291,25.471,120.574-17.087,157.65c-29.532,25.728-75.947,40.346-112.346,20.233c-19-10.499-33.424-27.951-43.699-47.072
		c-14.584-27.138-23.984-58.45-34.357-87.373C2173.789,1024.587,2164.537,992.539,2163.174,959.673z"/>
	<path style="fill:#96D9C9;" d="M2188.758,1187.85c0,0,51.168-52.466,64.336-75.261c13.167-22.795-8.967-7.955-31.575-13.952
		c-8.562-2.271-6.396-52.443-22.58-36.135c-26.553,26.756-59.936,73.541-59.936,73.541L2188.758,1187.85z"/>
	<g>
		<path style="fill:#F48C7F;" d="M863.751,1262.125c1.592-2.404-2.307-6.544-5.23-9.648c-3.24-3.439-22.969-12.183-26.328-13.243
			c-3.359-1.061-32.264,2.743-43.348,6.262c-11.084,3.52-18.351,1.964-18.351,1.964c-2.893-0.618-7.241-1.451-10.617-2.183
			l-4.076,25.726c25.945-0.089,49.962,2.074,52.422,2.035c7.796-0.124,22.151-8.151,25.475-9.318
			c3.323-1.168,10.024-0.16,14.515,1.996c4.49,2.156,17.575,7.301,19.785,6.152C870.207,1270.718,863.751,1262.125,863.751,1262.125
			z"/>
	</g>
	<path style="fill:#F48C7F;" d="M795.223,1243.835l-145.859-36.596c0,0-32.046-61.271-79.065-127.128
		c-15.373,15.216-23.917,38.594-39.398,53.661l81.6,111.027c4.142,4.581,185.477,24.522,185.477,24.522L795.223,1243.835z"/>
	<path style="fill:#B75742;" d="M581.017,1195.158c0,0-41.953-56.046-57.273-82.567c-15.32-26.521,10.433-9.256,36.737-16.233
		c9.961-2.643,1.704-57.031,20.536-38.057c30.894,31.129,61.866,98.567,61.866,98.567L581.017,1195.158z"/>
	<g style="opacity:0.5;">
		<path style="fill:#CAE1F9;" d="M2169.753,508.919h348.253c16.982,0,30.75,13.814,30.75,30.854v203.585
			c0,17.04-13.768,30.854-30.75,30.854h-243.678c-15.665,21.935-44.068,61.214-46.575,61.214c-2.348,0,2.171-37.101,5.356-61.214
			h-63.356c-16.982,0-30.75-13.814-30.75-30.854V539.773C2139.003,522.732,2152.771,508.919,2169.753,508.919z"/>
	</g>
	<path style="opacity:0.5;fill:#CAE1F9;" d="M594.841,563.46H247.088c-16.958,0-30.706,13.794-30.706,30.81v203.292
		c0,17.016,13.748,30.81,30.706,30.81h243.328c15.643,21.903,44.005,61.126,46.509,61.126c2.344,0-2.169-37.047-5.349-61.126h63.266
		c16.958,0,30.706-13.794,30.706-30.81V594.27C625.547,577.254,611.8,563.46,594.841,563.46z"/>
	<path style="fill:#96D9C9;" d="M1212.217,349.432H864.464c-16.958,0-30.706,13.794-30.706,30.81v203.292
		c0,17.016,13.747,30.81,30.706,30.81h243.328c15.643,21.903,44.006,61.127,46.509,61.127c2.344,0-2.168-37.047-5.349-61.127h63.266
		c16.958,0,30.706-13.794,30.706-30.81V380.242C1242.923,363.226,1229.176,349.432,1212.217,349.432z"/>
	<path style="fill:#FFFFFF;" d="M988.604,422.383H876.676c-0.473,0-0.857-0.384-0.857-0.857v-12.21c0-0.473,0.384-0.857,0.857-0.857
		h111.929c0.473,0,0.857,0.384,0.857,0.857v12.21C989.461,421.999,989.078,422.383,988.604,422.383z"/>
	<path style="fill:#FFFFFF;" d="M944.272,467.859h-67.597c-0.473,0-0.857-0.384-0.857-0.857v-12.21c0-0.473,0.384-0.857,0.857-0.857
		h67.597c0.474,0,0.857,0.384,0.857,0.857v12.21C945.13,467.476,944.746,467.859,944.272,467.859z"/>
	<path style="fill:#FFFFFF;" d="M1045.102,467.859h-80.168c-0.474,0-0.857-0.384-0.857-0.857v-12.21
		c0-0.473,0.384-0.857,0.857-0.857h80.168c0.474,0,0.857,0.384,0.857,0.857v12.21
		C1045.959,467.476,1045.575,467.859,1045.102,467.859z"/>
	<path style="fill:#FFFFFF;" d="M1199.451,467.859h-130.309c-0.474,0-0.857-0.384-0.857-0.857v-12.21
		c0-0.473,0.384-0.857,0.857-0.857h130.309c0.474,0,0.857,0.384,0.857,0.857v12.21
		C1200.308,467.476,1199.924,467.859,1199.451,467.859z"/>
	<path style="fill:#FFFFFF;" d="M1200.006,422.382h-173.652c-0.474,0-0.857-0.383-0.857-0.857v-12.21
		c0-0.474,0.384-0.857,0.857-0.857h173.652c0.474,0,0.857,0.384,0.857,0.857v12.21
		C1200.863,421.999,1200.479,422.382,1200.006,422.382z"/>
	<path style="fill:#FFFFFF;" d="M1200.006,556.932H876.676c-0.473,0-0.857-0.384-0.857-0.857v-12.209
		c0-0.474,0.384-0.857,0.857-0.857h323.331c0.473,0,0.857,0.384,0.857,0.857v12.209
		C1200.863,556.548,1200.479,556.932,1200.006,556.932z"/>
	<path style="fill:#FFFFFF;" d="M1022.417,512.92H876.676c-0.473,0-0.857-0.384-0.857-0.857v-12.21c0-0.473,0.384-0.857,0.857-0.857
		h145.741c0.474,0,0.857,0.384,0.857,0.857v12.21C1023.274,512.536,1022.891,512.92,1022.417,512.92z"/>
	<path style="fill:#FFFFFF;" d="M1200.006,512.92h-147.083c-0.474,0-0.857-0.384-0.857-0.857v-12.21
		c0-0.473,0.384-0.857,0.857-0.857h147.083c0.474,0,0.857,0.384,0.857,0.857v12.21
		C1200.863,512.536,1200.479,512.92,1200.006,512.92z"/>
	<path style="fill:#F47458;" d="M1624.483,318.219h321.046c16.958,0,30.705,13.794,30.705,30.81v203.292
		c0,17.016-13.747,30.81-30.705,30.81h-216.621c-15.643,21.903-44.006,61.127-46.509,61.127c-2.345,0,2.169-37.047,5.35-61.127
		h-63.266c-16.959,0-30.706-13.794-30.706-30.81V349.029C1593.777,332.013,1607.524,318.219,1624.483,318.219z"/>
	<path style="fill:#FFFFFF;" d="M1940.499,422.723h-79.989h-0.001h-76.092c-0.522,0-0.946,0.424-0.946,0.947v12.03
		c0,0.523,0.424,0.947,0.946,0.947h76.093h3.896h76.093c0.522,0,0.946-0.424,0.946-0.947v-12.03
		C1941.445,423.147,1941.021,422.723,1940.499,422.723z"/>
	<path style="fill:#FFFFFF;" d="M1629.979,436.647h130.309c0.474,0,0.857-0.384,0.857-0.857v-12.21c0-0.473-0.384-0.857-0.857-0.857
		h-130.309c-0.474,0-0.857,0.384-0.857,0.857v12.21C1629.121,436.263,1629.505,436.647,1629.979,436.647z"/>
	<path style="fill:#FFFFFF;" d="M1629.423,391.17h173.652c0.474,0,0.857-0.384,0.857-0.857v-12.21c0-0.474-0.384-0.857-0.857-0.857
		h-173.652c-0.474,0-0.856,0.384-0.856,0.857v12.21C1628.566,390.786,1628.949,391.17,1629.423,391.17z"/>
	<path style="fill:#FFFFFF;" d="M1834.469,391.17h106.12c0.474,0,0.856-0.384,0.856-0.857v-12.21c0-0.474-0.383-0.857-0.857-0.857
		h-106.119c-0.474,0-0.857,0.384-0.857,0.857v12.21C1833.611,390.786,1833.995,391.17,1834.469,391.17z"/>
	<polygon style="fill:#FFFFFF;" points="1628.566,525.719 1941.445,525.719 1941.445,525.719 1941.445,511.795 1628.566,511.795 	
		"/>
	
		<rect x="1792.647" y="467.784" transform="matrix(-1 -1.224647e-16 1.224647e-16 -1 3734.0928 949.4907)" style="fill:#FFFFFF;" width="148.798" height="13.923"/>
	
		<rect x="1629.121" y="467.784" transform="matrix(-1 -1.224647e-16 1.224647e-16 -1 3407.04 949.4907)" style="fill:#FFFFFF;" width="148.798" height="13.923"/>
	<path style="fill:#F7A491;" d="M637.605,1768.782c0,0-2.225,36.837-2.238,36.913c-0.818,4.677-4.04,16.231-4.04,20.483
		c0,15.973,75.846-13.559,58.848-20.638c-1.539-0.641-9.599-5.486-10.105-10.922c-0.78-8.377-2.757-25.32-2.757-25.32
		L637.605,1768.782z"/>
	<path style="fill:#B75742;" d="M686.987,1802.391c0,0-17.806,4.886-26.927,6.106c-9.12,1.222-21.144-9.063-27.595-6.285
		c-7.1,3.058-6.822,30.582-6.822,30.582s95.491,7.835,122.343-0.271C758.624,1829.313,723.391,1813.77,686.987,1802.391z"/>
	<path style="fill:#F7A491;" d="M766.359,1768.782c0,0-2.225,36.837-2.238,36.913c-0.818,4.677-4.04,16.231-4.04,20.483
		c0,15.973,75.846-13.559,58.848-20.638c-1.539-0.641-13.023-2.673-13.528-8.108c-0.78-8.376-2.235-34.278-2.235-34.278
		L766.359,1768.782z"/>
	<path style="fill:#B75742;" d="M815.741,1802.391c0,0-17.806,4.886-26.927,6.106c-9.12,1.222-21.144-9.063-27.595-6.285
		c-7.1,3.058-6.822,30.582-6.822,30.582s95.491,7.835,122.343-0.271C887.378,1829.313,852.144,1813.77,815.741,1802.391z"/>
	<path style="fill:#3C8F7C;" d="M522.035,1373.621l181.298,0.782c0,0,81.895-2.147,94.842,26.173s9.868,387.989,9.868,387.989
		s-43.712,6.501-45.951,4.101l-49.221-215.335c-5.265-18.252-7.056-37.33-5.28-56.242l4.702-50.083l-74.808,3.823
		c0,0-84.81-1.349-112.77-29.478C496.755,1417.223,522.035,1373.621,522.035,1373.621z"/>
	<path style="fill:#50BFA5;" d="M399.137,1353.628l194.938,11.959c0,0,83.894,6.815,96.841,35.136
		c12.947,28.32-8.262,391.076-8.262,391.076s-48.665,3.001-48.566,0.867c0.117-2.54-19.972-166.164-31.116-217.981
		c-3.536-16.445-4.774-33.296-3.681-50.081l7.04-58.072c0,0-181.069-1.03-190.057-10.071
		C388.313,1428.331,399.137,1353.628,399.137,1353.628z"/>
	<path style="fill:#F47458;" d="M576.484,1054.582c-27.134-8.225-77.971-12.528-77.971-12.528s-31.866-5.181-42.222-2.938
		c-15.241,3.3-43.854,4.811-46.517,70.963c-1.905,47.34-7.295,164.461-12.699,243.55l194.033,11.777
		C582.329,1243.721,602.175,1062.369,576.484,1054.582z"/>
	<path style="fill:#F7A491;" d="M525.041,985.524l-30.474,56.041c0,0,22.956,40.915,44.67,42.007
		c18.22,0.917,15.357-26.02,15.357-26.02s2.866-34.825,11.611-50.426C574.951,991.525,525.041,985.524,525.041,985.524z"/>
	<path style="fill:#F47458;" d="M527.821,1007.967c6.838,7.295,18.267,16.911,30.656,23.029c1.802-8.743,4.311-17.773,7.729-23.869
		c4.036-7.2-4.425-12.352-14.703-15.815c-13.77-3.66-26.461-5.787-26.461-5.787l-5.857,10.769
		C520.674,1000.074,525.543,1005.538,527.821,1007.967z"/>
	<g>
		<path style="fill:#F7A491;" d="M540.698,891.119c-1.255-0.897-31.315,69.161-18.276,94.366
			c13.039,25.205,47.476,41.849,64.871,29.694c19.241-13.443,40.284-91.873,17.08-120.525
			C581.169,866.002,540.698,891.119,540.698,891.119z"/>
		<path style="fill:#F7CC7F;" d="M604.191,852.654c-23.634-1.663-41.925,7.975-48.868,12.319
			c-10.488-1.626-25.854,0.146-46.673,19.78c-25.6,24.141-21.602,59.891-5.589,81.341c16.013,21.45,10.66,39.592,10.66,39.592
			l5.847-8.527c4.367-6.478,7.445-13.777,8.732-21.487c0.773-4.627,1.162-9.752,0.413-14.265
			c-1.976-11.899,15.418-14.6,22.188-22.159c5.213-5.821,9.67-21.214,18.028-30.907l8.644-6.77c0,0,17.612-7.238,30.891-0.118
			C621.745,908.573,634.515,854.787,604.191,852.654z"/>
		<path style="fill:#F7A491;" d="M546.346,951.935c-2.323,8.922-8.383,15.068-13.535,13.729c-5.152-1.339-7.445-9.657-5.122-18.578
			c2.323-8.922,8.383-15.068,13.535-13.729C546.376,934.696,548.669,943.014,546.346,951.935z"/>
	</g>
	<path style="fill:#FFFFFF;" d="M570.86,980.864l28.456,6.353c0,0-3.069,10.662-15.664,8.229
		C568.296,992.481,570.86,980.864,570.86,980.864z"/>
	<g>
		<ellipse style="fill:#ADAEB5;" cx="423.305" cy="764.699" rx="31.08" ry="19.248"/>
		<path style="fill:#F7CC7F;" d="M423.305,355.717c77.389,0,140.126,62.736,140.126,140.126c0,42.285-18.73,80.193-48.346,105.886
			c-0.104,0.112-21.89,23.658-25.483,48.318l-0.652,15.095c-0.214,4.949-2.155,9.667-5.488,13.332
			c-0.295,0.325-0.602,0.636-0.915,0.94H364.061c-0.313-0.304-0.62-0.615-0.915-0.94c-3.332-3.665-5.274-8.383-5.488-13.332
			l-0.652-15.095c-3.593-24.66-25.379-48.206-25.482-48.318c-29.615-25.692-48.346-63.601-48.346-105.886
			C283.179,418.454,345.915,355.717,423.305,355.717z"/>
		<path style="fill:#544C60;" d="M417.67,766.85h11.269c29.771,0,53.906-24.134,53.906-53.906v-33.53H363.764v33.53
			C363.764,742.715,387.899,766.85,417.67,766.85z"/>
		<path style="opacity:0.3;fill:#EAB054;" d="M388.177,602.979c77.433,0,140.205-62.772,140.205-140.204
			c0-31.439-10.349-60.46-27.824-83.845c37.883,25.083,62.873,68.077,62.873,116.914c0,42.285-18.73,80.193-48.346,105.886
			c-0.104,0.112-21.89,23.658-25.483,48.318l-0.652,15.095c-0.214,4.949-2.155,9.667-5.488,13.332
			c-0.295,0.325-0.602,0.636-0.915,0.94H364.061c-0.313-0.304-0.62-0.615-0.915-0.94c-3.332-3.665-5.274-8.383-5.488-13.332
			l-0.652-15.095c-3.593-24.66-25.379-48.206-25.482-48.318c-7.492-6.5-14.284-13.784-20.256-21.72
			C333.351,594.525,359.775,602.979,388.177,602.979z"/>
		<g>
			<polygon style="fill:#FFFFFF;" points="424.291,563.802 452.132,442.36 476.568,512.996 483.735,510.517 450.651,414.885 
				422.243,538.799 393.145,467.768 366.194,513.269 372.719,517.134 391.904,484.743 			"/>
		</g>
		<g>
			<path style="fill:#544C60;" d="M459.384,697.671l0.668,0.069c3.519,0.364,6.666-2.192,7.03-5.71l19.472-188.032
				c0.364-3.518-2.193-6.666-5.711-7.03l-0.668-0.069c-3.519-0.364-6.666,2.192-7.03,5.711l-19.472,188.032
				C453.309,694.159,455.866,697.307,459.384,697.671z"/>
			<path style="fill:#544C60;" d="M386.816,697.706L386.816,697.706c-3.703,0.383-7.016-2.308-7.399-6.011l-19.403-187.363
				c-0.383-3.703,2.308-7.015,6.01-7.399l0,0c3.703-0.384,7.016,2.307,7.399,6.01l19.403,187.364
				C393.21,694.01,390.519,697.322,386.816,697.706z"/>
		</g>
		<path style="fill:#ADAEB5;" d="M364.639,692.595h117.257c3.295,0,5.967-2.671,5.967-5.967v-1.247c0-3.296-2.672-5.967-5.967-5.967
			H364.639c-3.296,0-5.967,2.671-5.967,5.967v1.248C358.671,689.924,361.343,692.595,364.639,692.595z"/>
		<path style="fill:#ADAEB5;" d="M364.639,719.023h117.257c3.295,0,5.967-2.672,5.967-5.967v-1.247c0-3.296-2.672-5.967-5.967-5.967
			H364.639c-3.296,0-5.967,2.671-5.967,5.967v1.248C358.671,716.351,361.343,719.023,364.639,719.023z"/>
		<path style="fill:#ADAEB5;" d="M371.501,748.596h103.531c3.296,0,5.967-2.671,5.967-5.967v-1.247c0-3.296-2.671-5.967-5.967-5.967
			H371.501c-3.295,0-5.967,2.671-5.967,5.967v1.247C365.535,745.925,368.206,748.596,371.501,748.596z"/>
	</g>
	<path style="fill:#F7A491;" d="M720.577,1246.653l-149.878-39.645c0,0-45.877-51.86-88.996-111.541
		c-15.407,12.737-21.963,46.37-37.458,58.962l98.963,98.501c3.434,4.558,169.773,16.341,169.773,16.341L720.577,1246.653z"/>
	<path style="fill:#B75742;" d="M478.473,1204.977c0,0-50.954-64.747-63.395-90.173c-12.442-25.425,0.856-65.671,25.553-70.435
		c24.696-4.764,96.211,111.387,96.211,111.387L478.473,1204.977z"/>
	<g>
		<path style="fill:#F7A491;" d="M813.483,1267.036c1.601-2.13-1.768-6.163-4.295-9.188c-2.8-3.353-20.52-12.503-23.561-13.666
			c-3.041-1.163-29.916,0.756-40.335,3.393c-10.419,2.637-17.038,0.803-17.038,0.803c-2.635-0.729-6.6-1.737-9.675-2.599
			l-8.024,23.324c23.94,1.346,48.828,4.848,51.099,4.946c7.199,0.314,20.883-6.302,24.014-7.196
			c3.13-0.894,9.257,0.404,13.281,2.641c4.024,2.236,15.813,7.702,17.915,6.764C818.966,1275.318,813.483,1267.036,813.483,1267.036
			z"/>
	</g>
	<path style="fill:#9BC1F9;" d="M2505.797,478.041c-9.347-0.438-18.712-0.545-28.044-1.168c-1.704-0.114-4.067-1.624-4.805-3.135
		c-4.753-9.74-8.948-19.755-13.767-29.461c-1.402-2.825-1.65-4.601,0.313-7.176c6.91-9.068,13.575-18.323,20.323-27.515
		c1.095-1.49,2.136-3.019,3.988-5.646c-12.716-11.204-25.291-22.282-38.182-33.638c-10.192,9.36-19.595,17.719-28.64,26.45
		c-3.188,3.079-5.463,3.876-9.926,1.899c-9.121-4.04-18.801-6.806-28.145-10.372c-1.433-0.547-3.05-2.427-3.318-3.918
		c-2.052-11.384-4.127-22.785-5.48-34.264c-0.65-5.509-3.045-7.228-8.126-6.881c-1.953,0.133-3.954-0.438-5.933-0.689
		c-8.843,0.474-17.686,0.948-26.527,1.422c-0.939,0.343-1.852,0.85-2.82,1.004c-10.152,1.624-8.545,0.738-9.029,10.333
		c-0.592,11.69-0.985,23.39-1.402,33.543c-13.159,6.417-25.458,12.415-38.16,18.609c-11.272-8.272-23.052-16.917-34.908-25.618
		c-13.464,10.902-24.131,23.727-33.535,38.051c9.227,10.007,18.198,19.788,27.241,29.502c1.623,1.743,2.235,3.023,1.172,5.673
		c-4.164,10.373-8.068,20.871-11.51,31.503c-0.991,3.065-2.327,3.89-5.141,4.312c-11.614,1.742-23.187,3.753-34.794,5.543
		c-2.884,0.444-4.33,1.422-4.664,4.71c-1.497,14.749,0.168,29.216,3.085,43.632c0.577,2.853,2.319,3.181,4.784,3.253
		c11.402,0.335,22.797,0.948,34.2,1.204c3.286,0.074,4.801,0.938,6.188,4.28c4.795,11.549,10.263,22.819,15.894,35.112
		c-7.521,10.247-16.053,21.873-24.583,33.497c11.049,13.757,23.479,25.151,38.128,34.306c10.872-10.12,21.448-19.966,31.027-28.883
		c11.621,3.714,22.335,7.446,33.246,10.466c4.123,1.141,5.79,2.88,6.332,7.063c1.442,11.14,3.319,22.224,5.135,33.313
		c0.359,2.191,0.204,5.091,3.831,4.869c14.752-0.904,29.504-1.792,44.256-2.7c3.136-0.193,4.147-1.903,4.223-5.013
		c0.279-11.571,1.065-23.134,1.149-34.704c0.032-4.464,2.115-5.902,5.755-7.498c8.99-3.941,17.948-8.085,26.433-12.99
		c3.657-2.114,5.551-1.979,8.722,0.487c10.187,7.924,20.686,15.448,30.847,22.966c8.937-5.445,28.642-27.901,34.097-38.698
		c-8.978-9.571-17.957-19.344-27.202-28.858c-2.313-2.38-2.215-4.067-1.114-7.017c3.555-9.52,6.436-19.29,9.893-28.848
		c0.582-1.607,2.587-3.52,4.196-3.802c10.224-1.796,20.514-3.234,30.798-4.671c5.749-0.804,8.072-1.107,9.106-3.341l-2.524-47.071
		C2516.166,478.553,2513.359,478.395,2505.797,478.041z M2427.365,508.751c2.256,42.074-30.022,78.011-72.097,80.267l0,0
		c-42.074,2.256-78.011-30.022-80.267-72.096l0,0c-2.257-42.074,30.021-78.011,72.096-80.267l0,0
		C2389.172,434.399,2425.108,466.678,2427.365,508.751L2427.365,508.751z"/>
	<path style="opacity:0.2;fill:#9BC1F9;" d="M2716.466,596.613c-3.831-1.546-7.718-2.957-11.516-4.578
		c-0.693-0.296-1.458-1.27-1.544-2.007c-0.561-4.752-0.847-9.537-1.438-14.284c-0.173-1.381-0.017-2.158,1.177-2.944
		c4.202-2.771,8.33-5.654,12.482-8.5c0.674-0.461,1.33-0.946,2.485-1.771c-3.664-6.523-7.288-12.974-11.003-19.586
		c-5.611,2.414-10.749,4.524-15.791,6.843c-1.778,0.817-2.842,0.818-4.413-0.657c-3.212-3.014-6.841-5.579-10.215-8.428
		c-0.517-0.437-0.916-1.456-0.811-2.116c0.806-5.043,1.604-10.096,2.715-15.077c0.532-2.391-0.214-3.456-2.382-4.053
		c-0.833-0.229-1.584-0.759-2.372-1.152c-3.753-1.093-7.507-2.185-11.261-3.277c-0.441,0.006-0.896,0.084-1.321,0.007
		c-4.468-0.804-3.669-0.939-5.271,2.988c-1.951,4.785-3.822,9.602-5.477,13.772c-6.42,0.754-12.42,1.459-18.615,2.187
		c-3.49-5.091-7.138-10.412-10.809-15.767c-7.201,2.579-13.517,6.366-19.524,10.963c2.385,5.516,4.696,10.9,7.047,16.267
		c0.422,0.963,0.49,1.586-0.339,2.535c-3.249,3.715-6.407,7.52-9.392,11.448c-0.86,1.132-1.538,1.281-2.771,1.047
		c-5.093-0.969-10.209-1.819-15.307-2.767c-1.267-0.235-2.012-0.039-2.63,1.282c-2.775,5.927-4.192,12.198-5.08,18.63
		c-0.176,1.273,0.502,1.664,1.519,2.053c4.702,1.803,9.36,3.721,14.075,5.491c1.357,0.51,1.863,1.091,1.954,2.687
		c0.313,5.512,0.947,11.005,1.5,16.949c-4.628,3.172-9.88,6.773-15.13,10.371c2.597,7.344,6.113,13.905,10.883,19.857
		c6.006-2.631,11.85-5.19,17.142-7.508c4.301,3.243,8.221,6.361,12.326,9.211c1.552,1.077,1.992,2.045,1.608,3.867
		c-1.024,4.852-1.859,9.745-2.721,14.63c-0.17,0.965-0.658,2.151,0.886,2.587c6.278,1.776,12.556,3.558,18.835,5.331
		c1.334,0.377,2.005-0.188,2.49-1.473c1.805-4.78,3.818-9.484,5.542-14.292c0.665-1.855,1.742-2.151,3.491-2.285
		c4.321-0.331,8.659-0.751,12.909-1.557c1.832-0.348,2.602-0.015,3.563,1.475c3.088,4.788,6.365,9.455,9.502,14.07
		c4.519-0.965,16.006-7.447,19.854-11.15c-2.345-5.298-4.66-10.68-7.125-15.993c-0.616-1.329-0.33-2.018,0.56-3.087
		c2.87-3.448,5.495-7.099,8.331-10.577c0.477-0.585,1.591-1.089,2.303-0.972c4.521,0.743,9.019,1.645,13.514,2.546
		c2.514,0.504,3.525,0.716,4.282-0.064l5.815-19.982C2720.711,598.34,2719.564,597.864,2716.466,596.613z M2679.305,597.968
		c-5.198,17.86-23.891,28.126-41.751,22.928l0,0c-17.86-5.198-28.126-23.89-22.928-41.75l0,0
		c5.198-17.86,23.89-28.126,41.751-22.928l0,0C2674.237,561.415,2684.502,580.107,2679.305,597.968L2679.305,597.968z"/>
	
		<rect x="2189.59" y="1520.164" transform="matrix(-1 -1.224647e-16 1.224647e-16 -1 4398.1699 3318.0566)" style="fill:#13375B;" width="18.99" height="277.728"/>
	<g>
		<path style="fill:#F7A491;" d="M1974.796,1726.858c0,0-4.152,43.348-1.422,57.484c0.366,1.892,1.171,4.289,2.108,6.931
			c2.814,7.925-4.893,32.125-4.893,32.125l-103.342,0.365c-5.629,0.02-1.865-3.392,2.715-6.521
			c7.495-5.122,13.533-8.495,37.402-19.163c1.557-0.695,7.234-4.047,9.282-5.206c5.189-2.94,10.425-7.603,14.94-12.28
			c7.521-7.791,8.664-45.995,8.664-45.995L1974.796,1726.858z"/>
		<path style="fill:#50BFA5;" d="M1916.661,1792.865c27.238,7.012,47.495,2.704,58.852-1.508c2.812,7.912,7.644,37.643,4.487,37.643
			c-25.915,0-47.388,1.714-121.64,0.596c-2.658-0.04-2.334-8.77-0.601-10.696
			C1862.549,1813.578,1914.609,1794.029,1916.661,1792.865z"/>
		<path style="fill:#F7A491;" d="M1857.83,1654.979c0,0-22.603,37.79-26.257,51.733c-0.489,1.867-0.798,4.367-1.092,7.143
			c-0.882,8.326-18.402,27.286-18.402,27.286l-94.176-40.673c-5.13-2.215-0.225-3.825,5.301-4.855
			c9.044-1.686,16.002-2.358,42.35-2.593c1.718-0.016,8.34-0.812,10.705-1.054c5.999-0.615,12.786-2.779,18.926-5.244
			c10.226-4.104,27.856-38.407,27.856-38.407L1857.83,1654.979z"/>
		<path style="fill:#50BFA5;" d="M1776.275,1691.965c21.735,17.187,42.036,21.306,54.196,21.979
			c-0.878,8.314-7.683,34.755-10.554,33.503c-23.577-10.283-45.566-14.72-112.634-45.198c-2.4-1.091,1.685-8.904,4.099-9.969
			C1718.051,1689.339,1773.903,1692.209,1776.275,1691.965z"/>
		<path style="fill:#F7CC7F;" d="M2179.259,1332.268v22.276l-219.084,44.043l-54.379,156.141l30.303-19.775l-6.997,240.437
			l46.083,0.307c0,0,79.846-201.729,53.653-303.184l242.478,3.546c0,0,109.894-40.563,53.189-162.873L2179.259,1332.268z"/>
		<path style="fill:#EAB054;" d="M2179.259,1354.544c0,0-227.271,1.457-243.41,13.338s-137.256,307.14-137.256,307.14l52.825,18.858
			c0,0,105.093-167.506,110.654-179.455c5.563-11.949,46.266-99.298,61.803-108.209
			C2039.412,1397.306,2179.259,1354.544,2179.259,1354.544z"/>
	</g>
	<path style="fill:#13375B;" d="M2299.64,1810.275H2110.94c-8.691,0-15.737,7.046-15.737,15.737l0,0c0,1.52,1.232,2.752,2.752,2.752
		h214.67c1.52,0,2.752-1.232,2.752-2.752l0,0C2315.377,1817.321,2308.331,1810.275,2299.64,1810.275z"/>
	<path style="fill:#13375B;" d="M2211.695,1797.893h-23.115c-6.839,0-12.383,5.544-12.383,12.383l0,0
		c0,6.839,5.544,12.383,12.383,12.383h23.115c6.839,0,12.383-5.544,12.383-12.383l0,0
		C2224.078,1803.437,2218.534,1797.893,2211.695,1797.893z"/>
	<path style="fill:#50BFA5;" d="M2261.091,1039.576c0,0,45.708-9.022,66.566,8.403c20.858,17.427-4.469,172.361-4.447,198.046
		c0.021,25.686,14.322,98.252,14.322,98.252s-138.535,24.248-160.541-14.31c0,0-6.261-146.898-5.329-165.37
		c0.933-18.473,21.472-94.021,27.15-102.111C2204.49,1054.396,2261.091,1039.576,2261.091,1039.576z"/>
	<path style="fill:#F7A491;" d="M2261.379,968.873c0,0,0.24,1.367,0.672,3.692c2.073,11.157,10.057,48.165,15.449,58.339
		c6.518,12.295-22.313,51.51-50.061,46.724c-8.26-1.425,6.981-36.031,6.249-39.696c-1.401-7.018-3.304-16.591-5.249-26.406
		c-1.098-5.537-2.209-11.151-3.254-16.427c-2.967-14.995-5.389-27.259-5.389-27.259L2261.379,968.873z"/>
	<path style="fill:#F47458;" d="M2262.051,972.565c-0.432-2.325-0.672-3.692-0.672-3.692l-41.582-1.034
		c0,0,2.422,12.264,5.389,27.259c1.039,5.247,2.145,10.828,3.235,16.336c6.419-0.943,13.128-4.058,19.854-9.934
		c7.332-6.405,12.138-14.102,15.038-22.321C2262.8,976.556,2262.372,974.295,2262.051,972.565z"/>
	<path style="fill:#F7A491;" d="M2233.393,874.549c0,0,19.598-2.26,31.883,13.597c12.285,15.857,25.526,64.895-4.991,91.555
		c-30.518,26.661-60.671-3.518-65.142-35.515C2190.672,912.189,2188.934,873.394,2233.393,874.549z"/>
	<path style="fill:#F7A491;" d="M2186.114,943.713c3.643,7.067,9.757,10.98,13.657,8.741c3.899-2.24,4.107-9.785,0.465-16.852
		c-3.643-7.067-9.756-10.98-13.656-8.74C2182.681,929.102,2182.472,936.646,2186.114,943.713z"/>
	<path style="fill:#F7CC7F;" d="M2231.199,869.306c0,0,26.185,46.632,44.915,48.787c18.731,2.155,21.19,26.934,21.19,26.934
		s-6.696-57.097-25.24-68.108C2253.521,865.909,2231.199,869.306,2231.199,869.306z"/>
	<path style="fill:#F7A491;" d="M2271.202,929.811c-1.522,8.281,1.54,15.876,6.844,16.962c5.303,1.087,10.836-4.745,12.359-13.027
		c1.522-8.281-1.54-15.875-6.843-16.962C2278.26,915.697,2272.726,921.53,2271.202,929.811z"/>
	<path style="fill:#FFFFFF;" d="M2213.072,961.971l22.901-1.186c0,0-0.077,8.726-10.134,9.538
		C2213.578,971.314,2213.072,961.971,2213.072,961.971z"/>
	<path style="fill:#F47458;" d="M2297.409,1459.407c0,0-225.937,3.867-249.491,0c-23.554-3.867-33.749,25.664-26.718,41.133
		s26.366,21.444,54.843,22.852c28.477,1.405,265.429,8.085,272.108,1.758c5.456-5.169,77.288-250.748,103.425-340.556
		c5.225-17.95-5.078-36.707-23.017-41.972l0,0c-17.854-5.239-36.596,4.89-41.994,22.696L2297.409,1459.407z"/>
	<g>
		<rect x="468.997" y="1520.562" style="fill:#13375B;" width="19.103" height="279.364"/>
		<path style="fill:#13375B;" d="M382.007,1812.382h189.811c8.742,0,15.83,7.087,15.83,15.83l0,0c0,1.528-1.239,2.768-2.768,2.768
			H368.945c-1.529,0-2.768-1.239-2.768-2.768l0,0C366.177,1819.469,373.264,1812.382,382.007,1812.382z"/>
		<path style="fill:#13375B;" d="M467.506,1799.926h23.251c6.879,0,12.456,5.577,12.456,12.456l0,0
			c0,6.879-5.577,12.456-12.456,12.456h-23.251c-6.879,0-12.456-5.577-12.456-12.456l0,0
			C455.051,1805.503,460.627,1799.926,467.506,1799.926z"/>
		<path style="fill:#355389;" d="M601.524,1488.404l-13.06-54.367c-9.133-38.023-42.804-65.687-81.88-67.267l-165.418-6.687
			l-5.105-16.841l171.194,6.92c46.47,1.88,86.509,34.775,97.37,79.992l13.878,57.771
			C613.804,1488.127,608.071,1488.284,601.524,1488.404z"/>
		<path style="fill:#F7CC7F;" d="M379.645,1459.447c0,0,227.267,3.891,250.96,0c23.693-3.89,33.948,25.815,26.876,41.375
			c-7.073,15.56-26.523,21.571-55.167,22.986c-28.644,1.414-266.991,8.133-273.71,1.768
			c-5.488-5.199-77.744-252.224-104.034-342.561c-5.255-18.056,5.108-36.923,23.152-42.219l0,0
			c17.959-5.271,36.811,4.918,42.241,22.83L379.645,1459.447z"/>
	</g>
	<g>
		<path style="fill:#86B1F2;" d="M1097.453,1118.113H907.858c-5.017,0-9.536,3.031-11.438,7.672l-58.378,142.382H733.517
			c-2.923,0-5.292,2.367-5.292,5.288l0,0c0,2.92,2.37,5.288,5.292,5.288h297.486c8.179,0,15.596-4.801,18.945-12.262l58.782-130.943
			C1112.402,1127.358,1106.418,1118.113,1097.453,1118.113z"/>
		<path style="fill:#FFFFFF;" d="M995.374,1201.022c-1.28,6.396-6.859,10.672-12.46,9.553c-5.601-1.12-9.103-7.212-7.822-13.607
			c1.28-6.396,6.859-10.672,12.46-9.553C993.153,1188.535,996.655,1194.627,995.374,1201.022z"/>
	</g>
	<g>
		<path style="fill:#6394DB;" d="M1737.649,1118.113h189.595c5.016,0,9.535,3.031,11.438,7.672l58.378,142.382h104.524
			c2.924,0,5.293,2.367,5.293,5.288l0,0c0,2.92-2.369,5.288-5.293,5.288h-297.486c-8.179,0-15.596-4.801-18.945-12.262
			l-58.781-130.943C1722.699,1127.358,1728.684,1118.113,1737.649,1118.113z"/>
		<path style="fill:#FFFFFF;" d="M1839.728,1201.022c1.28,6.396,6.858,10.672,12.459,9.553c5.601-1.12,9.103-7.212,7.822-13.607
			s-6.858-10.672-12.46-9.553C1841.948,1188.535,1838.446,1194.627,1839.728,1201.022z"/>
	</g>
	<path style="fill:#13375B;" d="M701.965,1310.531h1403.606c2.569,0,4.651-2.082,4.651-4.651v-22.485
		c0-2.568-2.082-4.651-4.651-4.651H701.965c-2.569,0-4.651,2.083-4.651,4.651v22.485
		C697.314,1308.449,699.396,1310.531,701.965,1310.531z"/>
	<polygon style="fill:#13375B;" points="2039.712,1833.499 2062.335,1833.499 2013.591,1310.531 1990.968,1310.531 	"/>
	<polygon style="fill:#13375B;" points="1847.482,1833.499 1824.859,1833.499 1873.604,1310.531 1896.227,1310.531 	"/>
	<polygon style="fill:#13375B;" points="947.327,1833.499 969.951,1833.499 921.206,1310.531 898.583,1310.531 	"/>
	<path style="fill:#F8A492;" d="M1661.109,1029.101c-1.201,4.143-1.895,5.517-3.423,8.299c-9.858,17.944-32.733,43.55-32.733,43.55
		l-17.694-39.866c0,0,2.885-12.518,7.888-30.411C1632.237,1015.133,1648.513,1017.716,1661.109,1029.101z"/>
	<path style="fill:#E5B05C;" d="M1559.66,994.521c0,0,98.691,42.5,101.883,41.688c2.055-0.523,40.482-64.843,40.893-125.328
		c0.189-27.937-28.822-61.541-61.192-54.895c-16.296,3.346-16.044,7.879-40.154,42.913
		C1576.979,933.934,1559.66,994.521,1559.66,994.521z"/>
	<path style="fill:#F7A491;" d="M1475.414,1756.494c0,0,2.341,38.76,2.354,38.84c0.861,4.921,4.251,17.079,4.251,21.553
		c0,16.807-79.805-14.267-61.919-21.715c1.62-0.674,10.1-5.772,10.632-11.492c0.82-8.813,2.901-26.643,2.901-26.643
		L1475.414,1756.494z"/>
	<path style="fill:#DD513A;" d="M1417.492,1793.771c0,0,19.074,5.744,28.844,7.18c9.769,1.436,22.648-10.654,29.559-7.389
		c7.605,3.595,7.308,35.951,7.308,35.951s-102.288,9.21-131.051-0.318C1340.756,1825.421,1378.497,1807.149,1417.492,1793.771z"/>
	<path style="fill:#F7A491;" d="M1638.666,1756.494c0,0,2.341,38.76,2.355,38.84c0.86,4.921,4.25,17.079,4.25,21.553
		c0,16.807-79.805-14.267-61.919-21.715c1.619-0.674,12.614-9.579,13.146-15.298c0.82-8.813,0.387-22.837,0.387-22.837
		L1638.666,1756.494z"/>
	<path style="fill:#DD513A;" d="M1583.688,1793.771c0,0,19.073,5.744,28.843,7.18s22.649-10.654,29.56-7.389
		c7.605,3.595,7.909,35.951,7.909,35.951s-102.752,10.737-131.652-0.318C1507.127,1824.903,1544.693,1807.149,1583.688,1793.771z"/>
	<g>
		<path style="fill:#F7A491;" d="M1614.275,1050.577l-70.286-98.462c-0.295-0.862-0.934-2.625-1.91-5.32
			c-3.54-9.77-10.905-30.1-17.322-50.326l-0.068-0.216c-2.017-7.068-6.289-19.401-10.424-31.333
			c-4.596-13.265-10.296-29.714-10.495-32.521c0.177-0.479,0.508-1.34,0.948-2.484c2.577-6.691,6.061-22.621,7.293-29.549
			c0.785-4.411,1.568-15.133-3.675-15.133c-8.244,0-4.315,10.708-8.116,17.397c-1.398-4.471-4.223-13.337-5.714-22.313
			l-1.378-20.933c-0.266-1.579,1.414-13.127-4.369-13.127l-0.276,0.01c-5.194,0.38-5.078,12.657-7.237,33.423
			c-0.683-2.39-1.366-5.271-1.882-7.92c0.061-1.42-0.979-7.663-1.758-10.958c1.043-5.786,0.437-14.912-5.726-14.052
			c-3.089,0.433-2.834,13.168-2.834,13.168c0.033,1.748,0.215,15.214,0.121,17.875c-0.636-4.518-3.104-23.79-7.938-23.79
			c-4.01,0-4.331,5.188-4.247,9.291c0.049,2.429,2.567,23.308,2.708,25.736c-1.888-3.168-4.126-21.567-5.996-21.567
			c-7.818,0-4.992,26.161-2.12,32.978c0.27,0.696,0.557,2.065,0.89,3.65c0.976,4.661,2.61,12.461,6.703,19.464
			c4.908,8.397,11.679,21.747,12.712,23.794c0.757,4.17,3.108,19.167,6.066,38.034c1.267,8.072,2.654,16.924,4.1,26.092l0.077-0.011
			c0.265,1.985,1.73,8.294,7.29,31.964c7.607,32.392,8.397,33.792,8.735,34.389c3.303,5.848,79.086,108.762,82.311,113.139
			l1.902,2.584L1614.275,1050.577z"/>
		<path style="fill:#F47458;" d="M1483.545,820.935c0,0,5.704-14.589,15.86-14.616c0,0-5.674-2.047-10.54,1.805
			C1483.999,811.976,1483.545,820.935,1483.545,820.935z"/>
	</g>
	<g>
		<path style="fill:#F7A491;" d="M1631.258,792.747l9.048,57.222c0,0-34.476,27.683-54.573,21.843
			c-16.863-4.9-5.299-26.945-5.299-26.945s8.983-30.548,6.227-46.56C1583.904,782.296,1631.258,792.747,1631.258,792.747z"/>
		<path style="fill:#FE875E;" d="M1624.762,810.046c-8.642,4.08-25.726,9.649-39.02,10.997c1.271-8.007,1.996-16.478,0.918-22.735
			c-1.271-7.389,8.132-9.138,18.625-8.883c13.731,1.177,25.973,3.322,25.973,3.322l1.739,10.997
			C1630.386,806.498,1627.641,808.688,1624.762,810.046z"/>
		<path style="fill:#F7A491;" d="M1674.767,726.743c1.422,0.007-13.628,63.927-36.92,74.924
			c-23.292,10.997-58.03,5.266-64.548-11.951c-7.209-19.043,19.089-84.258,51.849-92.543
			C1657.907,688.888,1674.767,726.743,1674.767,726.743z"/>
		<path style="fill:#13375B;" d="M1647.813,668.009c18.605,10.731,27.145,26.646,30.019,33.164
			c8.732,4.144,19.298,13.108,24.37,37.257c6.236,29.693-15.936,52.583-39.443,59.468c-23.506,6.886-27.137,22.441-27.137,22.441
			l-2.666-16.74c0,0,5.229-14.575,13.092-21.87c7.864-7.294-3.725-17.926-4.743-26.597c-0.784-6.677,4.132-19.641,3.066-30.597
			c0,0-13.062-19.795-25.937-24.686C1596.483,691.511,1623.941,654.24,1647.813,668.009z"/>
		<path style="fill:#F7A491;" d="M1637.912,766.262c-3.045,7.383-1.8,14.713,2.779,16.372c4.579,1.659,10.76-2.982,13.805-10.364
			c3.044-7.383,1.799-14.713-2.78-16.372C1647.137,754.239,1640.956,758.879,1637.912,766.262z"/>
	</g>
	<path style="fill:#F8A492;" d="M1551.149,1052.161l-135.577-22.104c0,0,15.426-38.835,20.938-38.835
		c5.512,0,102.515,42.347,102.515,42.347l7.716,15.493L1551.149,1052.161z"/>
	<path style="fill:#6394DB;" d="M1620.595,1145.117c0,0,13.524,65.385,8.013,114.961c-5.512,49.577-5.944,225.69-5.944,225.69
		l21.032,281.781l-49.904,1.087c0,0-59.176-281.646-58.073-274.415c1.102,7.229-19.842-198.308-19.842-198.308l70.547-156.993
		L1620.595,1145.117z"/>
	<path style="fill:#86B1F2;" d="M1607.367,1142.02c0,0,8.818,58.872-2.204,84.693c-11.023,25.821-94.546,279.175-95.648,299.832
		s-28.878,248.979-28.878,248.979l-58.028-1.632l-12.554-253.85l26.287-319.049l25.521-80.665L1607.367,1142.02z"/>
	<path style="fill:#F7A491;" d="M1640.306,849.969c0,0-14.31,9.389-27.655,8.301c-13.347-1.087-32.217-13.403-32.217-13.403
		l2.622-8.89c0,0,34.526-5.029,35.397-4.486C1619.323,832.036,1640.306,849.969,1640.306,849.969z"/>
	<path style="fill:#F8A492;" d="M1487.793,989.307c0,0-51.283,48.395-74.431,40.132c-23.148-8.263-32.727-36.507,23.753-77.83
		C1487.664,914.626,1487.793,989.307,1487.793,989.307z"/>
	<path style="fill:#F7CC7F;" d="M1453.045,1049.063c7.618-41.446,62.831-170.42,67.24-194.176
		c2.145-11.553,31.926-11.808,60.293-10.3c29.963,1.593,59.728,5.383,59.728,5.383s26.525,4.356,38.195,15.292
		c11.671,10.935,14.771,41.178-2.005,98.588c-13.243,45.319-29.661,70.203-37.785,103.212c-1.646,11.073-3.056,21.997-4.924,34.76
		c-2.986,49.358,0.035,114.564,0.035,114.564s-144.401,29.952-198.415-15.493
		C1435.408,1200.892,1445.239,1091.525,1453.045,1049.063z"/>
	<path style="fill:#E5B05C;" d="M1416.226,959.945c0,0,56.66,46.771,59.968,46.771c2.129,0,80.856-57.914,99.028-105.492
		c10.047-26.303-11.025-55.731-35.095-55.633c-16.684,0.068-24.101,4.366-57.17,32.253
		C1449.889,905.731,1416.226,959.945,1416.226,959.945z"/>
	<polygon style="fill:#13375B;" points="755.099,1833.499 732.475,1833.499 781.219,1310.531 803.842,1310.531 	"/>
	<path style="fill:#3C8F7C;" d="M2437.745,1838.045H307.138c-2.253,0-4.081-1.827-4.081-4.081v-0.853c0-2.254,1.827-4.08,4.081-4.08
		h2130.607c2.254,0,4.08,1.826,4.08,4.08v0.853C2441.825,1836.218,2439.999,1838.045,2437.745,1838.045z"/>
	<path style="fill:#F7A491;" d="M2058.391,1191.488c-1.577-4.572,20.637-8.18,21.835-12.794s-28.014-5.075-29.045-9.136
		c-1.901-7.479,32.023-1.462,31.367-4.959c-0.657-3.496-35.335-11.426-31.563-17.41c3.772-5.983,35.102,11.974,36.066,7.908
		c0.964-4.066-30.637-14.078-30.039-22.998c0.319-4.767,51.84,23.962,57.836,21.39c5.996-2.571-6.353-25.026-1.574-28.335
		s18.288,45.613,21.571,47.256c3.272,1.638,72.881,41.686,97.672,48.102c3.043-8.301,24.85-52.291,27.535-60.141
		c13.888,9.957,30.028,12.177,44.367,21.26c-10.501,26.053-46.492,90.158-53.757,93.41c-22.118,9.9-107.28-61.234-124.286-73.416
		c-17.021-12.193-26.799-8.294-38.324-12.167C2076.528,1185.585,2059.969,1196.059,2058.391,1191.488z"/>
	<path style="fill:#96D9C9;" d="M2311.076,1188.631c0,0,30.135-66.805,34.711-92.729c4.575-25.924-17.665-58.469-40.962-56.37
		c-23.296,2.098-58.224,117.437-58.224,117.437L2311.076,1188.631z"/>
	<path style="fill:#FFFFFF;" d="M1579.361,768.632l21.228,9.56c0,0-4.12,7.842-13.577,3.908
		C1575.481,777.302,1579.361,768.632,1579.361,768.632z"/>
	<path style="fill:#CAE1F9;" d="M2624.566,852.179c-5.142-4.671-10.449-9.163-15.494-13.934c-0.922-0.871-1.559-2.853-1.267-4.066
		c1.888-7.821,4.225-15.536,6.059-23.368c0.533-2.279,1.231-3.413,3.572-3.958c8.243-1.92,16.435-4.063,24.644-6.13
		c1.33-0.335,2.649-0.717,4.952-1.344c-1.978-12.425-3.933-24.711-5.937-37.307c-10.259,0.535-19.593,0.87-28.897,1.588
		c-3.28,0.253-4.959-0.366-6.578-3.608c-3.308-6.626-7.538-12.787-11.197-19.247c-0.562-0.99-0.598-2.831-0.046-3.811
		c4.211-7.484,8.416-14.989,13.07-22.198c2.234-3.459,1.677-5.576-1.395-7.78c-1.18-0.847-2.055-2.121-3.068-3.2
		c-5.284-3.911-10.568-7.822-15.852-11.733c-0.699-0.247-1.461-0.39-2.089-0.759c-6.577-3.873-5.238-3.62-10.054,1.641
		c-5.867,6.409-11.627,12.917-16.667,18.529c-10.565-2.553-20.439-4.938-30.637-7.402c-2.537-10.065-5.188-20.583-7.856-31.169
		c-12.861-0.13-25.03,2.162-37.186,5.91c0.545,10.091,1.053,19.93,1.633,29.765c0.104,1.765-0.152,2.788-2.014,3.8
		c-7.289,3.966-14.488,8.126-21.486,12.582c-2.018,1.285-3.171,1.125-4.98,0.036c-7.469-4.497-15.043-8.819-22.53-13.286
		c-1.86-1.11-3.15-1.235-4.896,0.489c-7.833,7.731-13.723,16.796-18.872,26.424c-1.02,1.905-0.178,2.916,1.198,4.124
		c6.365,5.585,12.596,11.325,18.999,16.866c1.846,1.596,2.304,2.807,1.518,5.376c-2.72,8.877-4.922,17.911-7.515,27.608
		c-9.149,2.306-19.531,4.922-29.909,7.538c-0.186,13.098,1.537,25.496,5.59,37.664c11.007-0.648,21.715-1.279,31.414-1.851
		c4.893,7.622,9.258,14.825,14.072,21.714c1.819,2.603,1.951,4.387,0.282,7.036c-4.443,7.056-8.612,14.287-12.818,21.49
		c-0.831,1.423-2.292,3.009-0.111,4.598c8.868,6.46,17.729,12.93,26.6,19.388c1.886,1.373,3.272,0.873,4.786-0.872
		c5.634-6.488,11.553-12.732,17.073-19.313c2.13-2.539,4.002-2.377,6.84-1.568c7.008,1.997,14.094,3.863,21.268,5.069
		c3.093,0.52,4.112,1.493,4.76,4.404c2.081,9.353,4.529,18.624,6.787,27.731c7.689,1.111,29.585-2.418,37.813-6.015
		c-0.609-9.723-1.125-19.562-1.914-29.378c-0.198-2.456,0.656-3.375,2.682-4.542c6.535-3.766,12.805-7.994,19.305-11.827
		c1.093-0.645,3.145-0.791,4.199-0.191c6.699,3.809,13.267,7.852,19.831,11.894c3.67,2.259,5.143,3.185,6.791,2.396l20.82-28.127
		C2630.257,857.377,2628.726,855.958,2624.566,852.179z M2565.163,832.653c-18.61,25.141-54.077,30.436-79.218,11.826l0,0
		c-25.141-18.61-30.436-54.077-11.826-79.217l0,0c18.609-25.141,54.076-30.436,79.218-11.826l0,0
		C2578.478,772.045,2583.772,807.512,2565.163,832.653L2565.163,832.653z"/>
</g>
</svg>
